# xmcd CD database file
#
# Track frame offsets:
#	150
#	19500
#	41375
#	63525
#
# Disc length: 1102 seconds
#
# Revision: 0
# Processed by: cddbd v1.5.1PL2 Copyright (c) Steve Scherf et al.
# Submitted via: CDex 1.51
#
DISCID=28044c04
DTITLE=PlatinA Forest - 天界のオーロラ
DYEAR=2000
DGENRE=J-Pop
TTITLE0=天界のオーロラ　〜AURORA HEALING〜
TTITLE1=天界のオーロラ　〜AURORA HEALING〜　Black Re-mix Ver.
TTITLE2=天界のオーロラ　〜AURORA HEALING〜 Red Re-mix Ver.
TTITLE3=天界のオーロラ　〜AURORA HEALING〜(Instrument)
EXTD=YEAR: 2000
EXTT0=
EXTT1=
EXTT2=
EXTT3=
PLAYORDER=
